<svg xmlns="http://www.w3.org/2000/svg" width="742" height="146" viewBox="0 0 742 146" role="img" aria-label="contribution calendar"><g font-family="ui-monospace,SFMono-Regular,Menlo,Consolas,monospace"><text x="0" y="14" font-size="9" fill="#8B949E">sep</text><text x="56" y="14" font-size="9" fill="#8B949E">oct</text><text x="112" y="14" font-size="9" fill="#8B949E">nov</text><text x="182" y="14" font-size="9" fill="#8B949E">dec</text><text x="238" y="14" font-size="9" fill="#8B949E">jan</text><text x="308" y="14" font-size="9" fill="#8B949E">feb</text><text x="364" y="14" font-size="9" fill="#8B949E">mar</text><text x="420" y="14" font-size="9" fill="#8B949E">apr</text><text x="476" y="14" font-size="9" fill="#8B949E">may</text><text x="546" y="14" font-size="9" fill="#8B949E">jun</text><text x="602" y="14" font-size="9" fill="#8B949E">jul</text><text x="658" y="14" font-size="9" fill="#8B949E">aug</text><rect x="0" y="22" width="11" height="11" rx="2.5" fill="#C9D1D9" opacity="0.10"/><rect x="0" y="36" width="11" height="11" rx="2.5" fill="#C9D1D9" opacity="0.10"/><rect x="0" y="50" width="11" height="11" rx="2.5" fill="#C9D1D9" opacity="0.10"/><rect x="0" y="64" width="11" height="11" rx="2.5" fill="#C9D1D9" opacity="0.10"/><rect x="0" y="78" width="11" height="11" rx="2.5" fill="#C9D1D9" opacity="0.10"/><rect x="0" y="92" width="11" height="11" rx="2.5" fill="#C9D1D9" opacity="0.10"/><rect x="0" y="106" width="11" height="11" rx="2.5" fill="#C9D1D9" opacity="0.10"/><rect x="14" y="22" width="11" height="11" rx="2.5" fill="#C9D1D9" opacity="0.10"/><rect x="14" y="36" width="11" height="11" rx="2.5" fill="#C9D1D9" opacity="0.10"/><rect x="14" y="50" width="11" height="11" rx="2.5" fill="#C9D1D9" opacity="0.10"/><rect x="14" y="64" width="11" height="11" rx="2.5" fill="#C9D1D9" opacity="0.10"/><rect x="14" y="78" width="11" height="11" rx="2.5" fill="#C9D1D9" opacity="0.10"/><rect x="14" y="92" width="11" height="11" rx="2.5" fill="#C9D1D9" opacity="0.10"/><rect x="14" y="106" width="11" height="11" rx="2.5" fill="#C9D1D9" opacity="0.10"/><rect x="28" y="22" width="11" height="11" rx="2.5" fill="#C9D1D9" opacity="0.10"/><rect x="28" y="36" width="11" height="11" rx="2.5" fill="#C9D1D9" opacity="0.10"/><rect x="28" y="50" width="11" height="11" rx="2.5" fill="#C9D1D9" opacity="0.10"/><rect x="28" y="64" width="11" height="11" rx="2.5" fill="#C9D1D9" opacity="0.10"/><rect x="28" y="78" width="11" height="11" rx="2.5" fill="#C9D1D9" opacity="0.10"/><rect x="28" y="92" width="11" height="11" rx="2.5" fill="#C9D1D9" opacity="0.10"/><rect x="28" y="106" width="11" height="11" rx="2.5" fill="#C9D1D9" opacity="0.10"/><rect x="42" y="22" width="11" height="11" rx="2.5" fill="#C9D1D9" opacity="0.30"/><rect x="42" y="36" width="11" height="11" rx="2.5" fill="#C9D1D9" opacity="0.30"/><rect x="42" y="50" width="11" height="11" rx="2.5" fill="#C9D1D9" opacity="0.30"/><rect x="42" y="64" width="11" height="11" rx="2.5" fill="#C9D1D9" opacity="0.30"/><rect x="42" y="78" width="11" height="11" rx="2.5" fill="#C9D1D9" opacity="0.10"/><rect x="42" y="92" width="11" height="11" rx="2.5" fill="#C9D1D9" opacity="0.10"/><rect x="42" y="106" width="11" height="11" rx="2.5" fill="#C9D1D9" opacity="0.10"/><rect x="56" y="22" width="11" height="11" rx="2.5" fill="#C9D1D9" opacity="0.10"/><rect x="56" y="36" width="11" height="11" rx="2.5" fill="#C9D1D9" opacity="0.10"/><rect x="56" y="50" width="11" height="11" rx="2.5" fill="#C9D1D9" opacity="0.10"/><rect x="56" y="64" width="11" height="11" rx="2.5" fill="#C9D1D9" opacity="0.10"/><rect x="56" y="78" width="11" height="11" rx="2.5" fill="#C9D1D9" opacity="0.10"/><rect x="56" y="92" width="11" height="11" rx="2.5" fill="#C9D1D9" opacity="0.10"/><rect x="56" y="106" width="11" height="11" rx="2.5" fill="#C9D1D9" opacity="0.10"/><rect x="70" y="22" width="11" height="11" rx="2.5" fill="#C9D1D9" opacity="0.10"/><rect x="70" y="36" width="11" height="11" rx="2.5" fill="#C9D1D9" opacity="0.10"/><rect x="70" y="50" width="11" height="11" rx="2.5" fill="#C9D1D9" opacity="0.10"/><rect x="70" y="64" width="11" height="11" rx="2.5" fill="#C9D1D9" opacity="0.10"/><rect x="70" y="78" width="11" height="11" rx="2.5" fill="#C9D1D9" opacity="0.10"/><rect x="70" y="92" width="11" height="11" rx="2.5" fill="#C9D1D9" opacity="0.10"/><rect x="70" y="106" width="11" height="11" rx="2.5" fill="#C9D1D9" opacity="0.10"/><rect x="84" y="22" width="11" height="11" rx="2.5" fill="#C9D1D9" opacity="0.10"/><rect x="84" y="36" width="11" height="11" rx="2.5" fill="#C9D1D9" opacity="0.10"/><rect x="84" y="50" width="11" height="11" rx="2.5" fill="#C9D1D9" opacity="0.10"/><rect x="84" y="64" width="11" height="11" rx="2.5" fill="#C9D1D9" opacity="0.10"/><rect x="84" y="78" width="11" height="11" rx="2.5" fill="#C9D1D9" opacity="0.10"/><rect x="84" y="92" width="11" height="11" rx="2.5" fill="#C9D1D9" opacity="0.10"/><rect x="84" y="106" width="11" height="11" rx="2.5" fill="#C9D1D9" opacity="0.10"/><rect x="98" y="22" width="11" height="11" rx="2.5" fill="#C9D1D9" opacity="0.10"/><rect x="98" y="36" width="11" height="11" rx="2.5" fill="#C9D1D9" opacity="0.10"/><rect x="98" y="50" width="11" height="11" rx="2.5" fill="#C9D1D9" opacity="0.10"/><rect x="98" y="64" width="11" height="11" rx="2.5" fill="#C9D1D9" opacity="0.10"/><rect x="98" y="78" width="11" height="11" rx="2.5" fill="#C9D1D9" opacity="0.10"/><rect x="98" y="92" width="11" height="11" rx="2.5" fill="#C9D1D9" opacity="0.10"/><rect x="98" y="106" width="11" height="11" rx="2.5" fill="#C9D1D9" opacity="0.10"/><rect x="112" y="22" width="11" height="11" rx="2.5" fill="#C9D1D9" opacity="0.10"/><rect x="112" y="36" width="11" height="11" rx="2.5" fill="#C9D1D9" opacity="0.10"/><rect x="112" y="50" width="11" height="11" rx="2.5" fill="#C9D1D9" opacity="0.10"/><rect x="112" y="64" width="11" height="11" rx="2.5" fill="#C9D1D9" opacity="0.10"/><rect x="112" y="78" width="11" height="11" rx="2.5" fill="#C9D1D9" opacity="0.10"/><rect x="112" y="92" width="11" height="11" rx="2.5" fill="#C9D1D9" opacity="0.10"/><rect x="112" y="106" width="11" height="11" rx="2.5" fill="#C9D1D9" opacity="0.10"/><rect x="126" y="22" width="11" height="11" rx="2.5" fill="#C9D1D9" opacity="0.10"/><rect x="126" y="36" width="11" height="11" rx="2.5" fill="#C9D1D9" opacity="0.10"/><rect x="126" y="50" width="11" height="11" rx="2.5" fill="#C9D1D9" opacity="0.10"/><rect x="126" y="64" width="11" height="11" rx="2.5" fill="#C9D1D9" opacity="0.10"/><rect x="126" y="78" width="11" height="11" rx="2.5" fill="#C9D1D9" opacity="0.10"/><rect x="126" y="92" width="11" height="11" rx="2.5" fill="#C9D1D9" opacity="0.10"/><rect x="126" y="106" width="11" height="11" rx="2.5" fill="#C9D1D9" opacity="0.10"/><rect x="140" y="22" width="11" height="11" rx="2.5" fill="#C9D1D9" opacity="0.10"/><rect x="140" y="36" width="11" height="11" rx="2.5" fill="#C9D1D9" opacity="0.10"/><rect x="140" y="50" width="11" height="11" rx="2.5" fill="#C9D1D9" opacity="0.10"/><rect x="140" y="64" width="11" height="11" rx="2.5" fill="#C9D1D9" opacity="0.10"/><rect x="140" y="78" width="11" height="11" rx="2.5" fill="#C9D1D9" opacity="0.10"/><rect x="140" y="92" width="11" height="11" rx="2.5" fill="#C9D1D9" opacity="0.10"/><rect x="140" y="106" width="11" height="11" rx="2.5" fill="#C9D1D9" opacity="0.10"/><rect x="154" y="22" width="11" height="11" rx="2.5" fill="#C9D1D9" opacity="0.10"/><rect x="154" y="36" width="11" height="11" rx="2.5" fill="#C9D1D9" opacity="0.10"/><rect x="154" y="50" width="11" height="11" rx="2.5" fill="#C9D1D9" opacity="0.10"/><rect x="154" y="64" width="11" height="11" rx="2.5" fill="#C9D1D9" opacity="0.10"/><rect x="154" y="78" width="11" height="11" rx="2.5" fill="#C9D1D9" opacity="0.10"/><rect x="154" y="92" width="11" height="11" rx="2.5" fill="#C9D1D9" opacity="0.10"/><rect x="154" y="106" width="11" height="11" rx="2.5" fill="#C9D1D9" opacity="0.10"/><rect x="168" y="22" width="11" height="11" rx="2.5" fill="#C9D1D9" opacity="0.30"/><rect x="168" y="36" width="11" height="11" rx="2.5" fill="#C9D1D9" opacity="0.30"/><rect x="168" y="50" width="11" height="11" rx="2.5" fill="#C9D1D9" opacity="0.10"/><rect x="168" y="64" width="11" height="11" rx="2.5" fill="#C9D1D9" opacity="0.10"/><rect x="168" y="78" width="11" height="11" rx="2.5" fill="#C9D1D9" opacity="0.10"/><rect x="168" y="92" width="11" height="11" rx="2.5" fill="#C9D1D9" opacity="0.10"/><rect x="168" y="106" width="11" height="11" rx="2.5" fill="#C9D1D9" opacity="0.10"/><rect x="182" y="22" width="11" height="11" rx="2.5" fill="#C9D1D9" opacity="0.10"/><rect x="182" y="36" width="11" height="11" rx="2.5" fill="#C9D1D9" opacity="0.10"/><rect x="182" y="50" width="11" height="11" rx="2.5" fill="#C9D1D9" opacity="0.10"/><rect x="182" y="64" width="11" height="11" rx="2.5" fill="#C9D1D9" opacity="0.10"/><rect x="182" y="78" width="11" height="11" rx="2.5" fill="#C9D1D9" opacity="0.10"/><rect x="182" y="92" width="11" height="11" rx="2.5" fill="#C9D1D9" opacity="0.10"/><rect x="182" y="106" width="11" height="11" rx="2.5" fill="#C9D1D9" opacity="0.10"/><rect x="196" y="22" width="11" height="11" rx="2.5" fill="#C9D1D9" opacity="0.10"/><rect x="196" y="36" width="11" height="11" rx="2.5" fill="#C9D1D9" opacity="0.10"/><rect x="196" y="50" width="11" height="11" rx="2.5" fill="#C9D1D9" opacity="0.10"/><rect x="196" y="64" width="11" height="11" rx="2.5" fill="#C9D1D9" opacity="0.10"/><rect x="196" y="78" width="11" height="11" rx="2.5" fill="#C9D1D9" opacity="0.10"/><rect x="196" y="92" width="11" height="11" rx="2.5" fill="#C9D1D9" opacity="0.10"/><rect x="196" y="106" width="11" height="11" rx="2.5" fill="#C9D1D9" opacity="0.10"/><rect x="210" y="22" width="11" height="11" rx="2.5" fill="#C9D1D9" opacity="0.10"/><rect x="210" y="36" width="11" height="11" rx="2.5" fill="#C9D1D9" opacity="0.10"/><rect x="210" y="50" width="11" height="11" rx="2.5" fill="#C9D1D9" opacity="0.10"/><rect x="210" y="64" width="11" height="11" rx="2.5" fill="#C9D1D9" opacity="0.10"/><rect x="210" y="78" width="11" height="11" rx="2.5" fill="#C9D1D9" opacity="0.10"/><rect x="210" y="92" width="11" height="11" rx="2.5" fill="#C9D1D9" opacity="0.10"/><rect x="210" y="106" width="11" height="11" rx="2.5" fill="#C9D1D9" opacity="0.10"/><rect x="224" y="22" width="11" height="11" rx="2.5" fill="#C9D1D9" opacity="0.10"/><rect x="224" y="36" width="11" height="11" rx="2.5" fill="#C9D1D9" opacity="0.10"/><rect x="224" y="50" width="11" height="11" rx="2.5" fill="#C9D1D9" opacity="0.10"/><rect x="224" y="64" width="11" height="11" rx="2.5" fill="#C9D1D9" opacity="0.10"/><rect x="224" y="78" width="11" height="11" rx="2.5" fill="#C9D1D9" opacity="0.10"/><rect x="224" y="92" width="11" height="11" rx="2.5" fill="#C9D1D9" opacity="0.10"/><rect x="224" y="106" width="11" height="11" rx="2.5" fill="#C9D1D9" opacity="0.10"/><rect x="238" y="22" width="11" height="11" rx="2.5" fill="#C9D1D9" opacity="0.10"/><rect x="238" y="36" width="11" height="11" rx="2.5" fill="#C9D1D9" opacity="0.10"/><rect x="238" y="50" width="11" height="11" rx="2.5" fill="#C9D1D9" opacity="0.10"/><rect x="238" y="64" width="11" height="11" rx="2.5" fill="#C9D1D9" opacity="0.10"/><rect x="238" y="78" width="11" height="11" rx="2.5" fill="#C9D1D9" opacity="0.10"/><rect x="238" y="92" width="11" height="11" rx="2.5" fill="#C9D1D9" opacity="0.10"/><rect x="238" y="106" width="11" height="11" rx="2.5" fill="#C9D1D9" opacity="0.10"/><rect x="252" y="22" width="11" height="11" rx="2.5" fill="#C9D1D9" opacity="0.10"/><rect x="252" y="36" width="11" height="11" rx="2.5" fill="#C9D1D9" opacity="0.30"/><rect x="252" y="50" width="11" height="11" rx="2.5" fill="#C9D1D9" opacity="0.10"/><rect x="252" y="64" width="11" height="11" rx="2.5" fill="#C9D1D9" opacity="0.10"/><rect x="252" y="78" width="11" height="11" rx="2.5" fill="#C9D1D9" opacity="0.10"/><rect x="252" y="92" width="11" height="11" rx="2.5" fill="#C9D1D9" opacity="0.10"/><rect x="252" y="106" width="11" height="11" rx="2.5" fill="#C9D1D9" opacity="0.10"/><rect x="266" y="22" width="11" height="11" rx="2.5" fill="#C9D1D9" opacity="0.30"/><rect x="266" y="36" width="11" height="11" rx="2.5" fill="#C9D1D9" opacity="0.10"/><rect x="266" y="50" width="11" height="11" rx="2.5" fill="#C9D1D9" opacity="0.10"/><rect x="266" y="64" width="11" height="11" rx="2.5" fill="#C9D1D9" opacity="0.10"/><rect x="266" y="78" width="11" height="11" rx="2.5" fill="#C9D1D9" opacity="0.10"/><rect x="266" y="92" width="11" height="11" rx="2.5" fill="#C9D1D9" opacity="0.30"/><rect x="266" y="106" width="11" height="11" rx="2.5" fill="#C9D1D9" opacity="0.30"/><rect x="280" y="22" width="11" height="11" rx="2.5" fill="#C9D1D9" opacity="0.10"/><rect x="280" y="36" width="11" height="11" rx="2.5" fill="#C9D1D9" opacity="0.10"/><rect x="280" y="50" width="11" height="11" rx="2.5" fill="#C9D1D9" opacity="0.10"/><rect x="280" y="64" width="11" height="11" rx="2.5" fill="#C9D1D9" opacity="0.10"/><rect x="280" y="78" width="11" height="11" rx="2.5" fill="#C9D1D9" opacity="0.10"/><rect x="280" y="92" width="11" height="11" rx="2.5" fill="#C9D1D9" opacity="0.10"/><rect x="280" y="106" width="11" height="11" rx="2.5" fill="#C9D1D9" opacity="0.10"/><rect x="294" y="22" width="11" height="11" rx="2.5" fill="#C9D1D9" opacity="0.10"/><rect x="294" y="36" width="11" height="11" rx="2.5" fill="#C9D1D9" opacity="0.10"/><rect x="294" y="50" width="11" height="11" rx="2.5" fill="#C9D1D9" opacity="0.30"/><rect x="294" y="64" width="11" height="11" rx="2.5" fill="#C9D1D9" opacity="0.10"/><rect x="294" y="78" width="11" height="11" rx="2.5" fill="#C9D1D9" opacity="0.10"/><rect x="294" y="92" width="11" height="11" rx="2.5" fill="#C9D1D9" opacity="0.10"/><rect x="294" y="106" width="11" height="11" rx="2.5" fill="#C9D1D9" opacity="0.30"/><rect x="308" y="22" width="11" height="11" rx="2.5" fill="#C9D1D9" opacity="0.30"/><rect x="308" y="36" width="11" height="11" rx="2.5" fill="#C9D1D9" opacity="0.30"/><rect x="308" y="50" width="11" height="11" rx="2.5" fill="#C9D1D9" opacity="0.30"/><rect x="308" y="64" width="11" height="11" rx="2.5" fill="#C9D1D9" opacity="0.30"/><rect x="308" y="78" width="11" height="11" rx="2.5" fill="#C9D1D9" opacity="0.10"/><rect x="308" y="92" width="11" height="11" rx="2.5" fill="#C9D1D9" opacity="0.10"/><rect x="308" y="106" width="11" height="11" rx="2.5" fill="#C9D1D9" opacity="0.10"/><rect x="322" y="22" width="11" height="11" rx="2.5" fill="#C9D1D9" opacity="0.30"/><rect x="322" y="36" width="11" height="11" rx="2.5" fill="#C9D1D9" opacity="0.10"/><rect x="322" y="50" width="11" height="11" rx="2.5" fill="#C9D1D9" opacity="0.10"/><rect x="322" y="64" width="11" height="11" rx="2.5" fill="#C9D1D9" opacity="0.10"/><rect x="322" y="78" width="11" height="11" rx="2.5" fill="#C9D1D9" opacity="0.30"/><rect x="322" y="92" width="11" height="11" rx="2.5" fill="#C9D1D9" opacity="0.10"/><rect x="322" y="106" width="11" height="11" rx="2.5" fill="#C9D1D9" opacity="0.10"/><rect x="336" y="22" width="11" height="11" rx="2.5" fill="#C9D1D9" opacity="0.10"/><rect x="336" y="36" width="11" height="11" rx="2.5" fill="#C9D1D9" opacity="0.10"/><rect x="336" y="50" width="11" height="11" rx="2.5" fill="#C9D1D9" opacity="0.10"/><rect x="336" y="64" width="11" height="11" rx="2.5" fill="#C9D1D9" opacity="0.10"/><rect x="336" y="78" width="11" height="11" rx="2.5" fill="#C9D1D9" opacity="0.10"/><rect x="336" y="92" width="11" height="11" rx="2.5" fill="#C9D1D9" opacity="0.10"/><rect x="336" y="106" width="11" height="11" rx="2.5" fill="#C9D1D9" opacity="0.10"/><rect x="350" y="22" width="11" height="11" rx="2.5" fill="#C9D1D9" opacity="0.10"/><rect x="350" y="36" width="11" height="11" rx="2.5" fill="#C9D1D9" opacity="0.10"/><rect x="350" y="50" width="11" height="11" rx="2.5" fill="#C9D1D9" opacity="0.10"/><rect x="350" y="64" width="11" height="11" rx="2.5" fill="#C9D1D9" opacity="0.10"/><rect x="350" y="78" width="11" height="11" rx="2.5" fill="#C9D1D9" opacity="0.10"/><rect x="350" y="92" width="11" height="11" rx="2.5" fill="#C9D1D9" opacity="0.10"/><rect x="350" y="106" width="11" height="11" rx="2.5" fill="#C9D1D9" opacity="0.10"/><rect x="364" y="22" width="11" height="11" rx="2.5" fill="#C9D1D9" opacity="0.10"/><rect x="364" y="36" width="11" height="11" rx="2.5" fill="#C9D1D9" opacity="0.10"/><rect x="364" y="50" width="11" height="11" rx="2.5" fill="#C9D1D9" opacity="0.10"/><rect x="364" y="64" width="11" height="11" rx="2.5" fill="#C9D1D9" opacity="0.10"/><rect x="364" y="78" width="11" height="11" rx="2.5" fill="#C9D1D9" opacity="0.10"/><rect x="364" y="92" width="11" height="11" rx="2.5" fill="#C9D1D9" opacity="0.10"/><rect x="364" y="106" width="11" height="11" rx="2.5" fill="#C9D1D9" opacity="0.10"/><rect x="378" y="22" width="11" height="11" rx="2.5" fill="#C9D1D9" opacity="0.10"/><rect x="378" y="36" width="11" height="11" rx="2.5" fill="#C9D1D9" opacity="0.10"/><rect x="378" y="50" width="11" height="11" rx="2.5" fill="#C9D1D9" opacity="0.10"/><rect x="378" y="64" width="11" height="11" rx="2.5" fill="#C9D1D9" opacity="0.10"/><rect x="378" y="78" width="11" height="11" rx="2.5" fill="#C9D1D9" opacity="0.10"/><rect x="378" y="92" width="11" height="11" rx="2.5" fill="#C9D1D9" opacity="0.10"/><rect x="378" y="106" width="11" height="11" rx="2.5" fill="#C9D1D9" opacity="0.10"/><rect x="392" y="22" width="11" height="11" rx="2.5" fill="#C9D1D9" opacity="0.10"/><rect x="392" y="36" width="11" height="11" rx="2.5" fill="#C9D1D9" opacity="0.10"/><rect x="392" y="50" width="11" height="11" rx="2.5" fill="#C9D1D9" opacity="0.10"/><rect x="392" y="64" width="11" height="11" rx="2.5" fill="#C9D1D9" opacity="0.10"/><rect x="392" y="78" width="11" height="11" rx="2.5" fill="#C9D1D9" opacity="0.10"/><rect x="392" y="92" width="11" height="11" rx="2.5" fill="#C9D1D9" opacity="0.10"/><rect x="392" y="106" width="11" height="11" rx="2.5" fill="#C9D1D9" opacity="0.10"/><rect x="406" y="22" width="11" height="11" rx="2.5" fill="#C9D1D9" opacity="0.10"/><rect x="406" y="36" width="11" height="11" rx="2.5" fill="#C9D1D9" opacity="0.10"/><rect x="406" y="50" width="11" height="11" rx="2.5" fill="#C9D1D9" opacity="0.30"/><rect x="406" y="64" width="11" height="11" rx="2.5" fill="#C9D1D9" opacity="0.10"/><rect x="406" y="78" width="11" height="11" rx="2.5" fill="#C9D1D9" opacity="0.10"/><rect x="406" y="92" width="11" height="11" rx="2.5" fill="#C9D1D9" opacity="0.30"/><rect x="406" y="106" width="11" height="11" rx="2.5" fill="#C9D1D9" opacity="0.10"/><rect x="420" y="22" width="11" height="11" rx="2.5" fill="#C9D1D9" opacity="0.10"/><rect x="420" y="36" width="11" height="11" rx="2.5" fill="#C9D1D9" opacity="0.10"/><rect x="420" y="50" width="11" height="11" rx="2.5" fill="#C9D1D9" opacity="0.10"/><rect x="420" y="64" width="11" height="11" rx="2.5" fill="#C9D1D9" opacity="0.10"/><rect x="420" y="78" width="11" height="11" rx="2.5" fill="#C9D1D9" opacity="0.10"/><rect x="420" y="92" width="11" height="11" rx="2.5" fill="#C9D1D9" opacity="0.10"/><rect x="420" y="106" width="11" height="11" rx="2.5" fill="#C9D1D9" opacity="0.10"/><rect x="434" y="22" width="11" height="11" rx="2.5" fill="#C9D1D9" opacity="0.10"/><rect x="434" y="36" width="11" height="11" rx="2.5" fill="#C9D1D9" opacity="0.10"/><rect x="434" y="50" width="11" height="11" rx="2.5" fill="#C9D1D9" opacity="0.10"/><rect x="434" y="64" width="11" height="11" rx="2.5" fill="#C9D1D9" opacity="0.10"/><rect x="434" y="78" width="11" height="11" rx="2.5" fill="#C9D1D9" opacity="0.10"/><rect x="434" y="92" width="11" height="11" rx="2.5" fill="#C9D1D9" opacity="0.10"/><rect x="434" y="106" width="11" height="11" rx="2.5" fill="#C9D1D9" opacity="0.10"/><rect x="448" y="22" width="11" height="11" rx="2.5" fill="#C9D1D9" opacity="0.10"/><rect x="448" y="36" width="11" height="11" rx="2.5" fill="#C9D1D9" opacity="0.10"/><rect x="448" y="50" width="11" height="11" rx="2.5" fill="#C9D1D9" opacity="0.10"/><rect x="448" y="64" width="11" height="11" rx="2.5" fill="#C9D1D9" opacity="0.10"/><rect x="448" y="78" width="11" height="11" rx="2.5" fill="#C9D1D9" opacity="0.10"/><rect x="448" y="92" width="11" height="11" rx="2.5" fill="#C9D1D9" opacity="0.10"/><rect x="448" y="106" width="11" height="11" rx="2.5" fill="#C9D1D9" opacity="0.10"/><rect x="462" y="22" width="11" height="11" rx="2.5" fill="#C9D1D9" opacity="0.10"/><rect x="462" y="36" width="11" height="11" rx="2.5" fill="#C9D1D9" opacity="0.10"/><rect x="462" y="50" width="11" height="11" rx="2.5" fill="#C9D1D9" opacity="0.10"/><rect x="462" y="64" width="11" height="11" rx="2.5" fill="#C9D1D9" opacity="0.10"/><rect x="462" y="78" width="11" height="11" rx="2.5" fill="#C9D1D9" opacity="0.10"/><rect x="462" y="92" width="11" height="11" rx="2.5" fill="#C9D1D9" opacity="0.10"/><rect x="462" y="106" width="11" height="11" rx="2.5" fill="#C9D1D9" opacity="0.10"/><rect x="476" y="22" width="11" height="11" rx="2.5" fill="#C9D1D9" opacity="0.10"/><rect x="476" y="36" width="11" height="11" rx="2.5" fill="#C9D1D9" opacity="0.10"/><rect x="476" y="50" width="11" height="11" rx="2.5" fill="#C9D1D9" opacity="0.10"/><rect x="476" y="64" width="11" height="11" rx="2.5" fill="#C9D1D9" opacity="0.10"/><rect x="476" y="78" width="11" height="11" rx="2.5" fill="#C9D1D9" opacity="0.10"/><rect x="476" y="92" width="11" height="11" rx="2.5" fill="#C9D1D9" opacity="0.10"/><rect x="476" y="106" width="11" height="11" rx="2.5" fill="#C9D1D9" opacity="0.10"/><rect x="490" y="22" width="11" height="11" rx="2.5" fill="#C9D1D9" opacity="0.10"/><rect x="490" y="36" width="11" height="11" rx="2.5" fill="#C9D1D9" opacity="0.10"/><rect x="490" y="50" width="11" height="11" rx="2.5" fill="#C9D1D9" opacity="0.10"/><rect x="490" y="64" width="11" height="11" rx="2.5" fill="#C9D1D9" opacity="0.10"/><rect x="490" y="78" width="11" height="11" rx="2.5" fill="#C9D1D9" opacity="0.10"/><rect x="490" y="92" width="11" height="11" rx="2.5" fill="#C9D1D9" opacity="0.10"/><rect x="490" y="106" width="11" height="11" rx="2.5" fill="#C9D1D9" opacity="0.10"/><rect x="504" y="22" width="11" height="11" rx="2.5" fill="#C9D1D9" opacity="0.10"/><rect x="504" y="36" width="11" height="11" rx="2.5" fill="#C9D1D9" opacity="0.10"/><rect x="504" y="50" width="11" height="11" rx="2.5" fill="#C9D1D9" opacity="0.10"/><rect x="504" y="64" width="11" height="11" rx="2.5" fill="#C9D1D9" opacity="0.10"/><rect x="504" y="78" width="11" height="11" rx="2.5" fill="#C9D1D9" opacity="0.10"/><rect x="504" y="92" width="11" height="11" rx="2.5" fill="#C9D1D9" opacity="0.10"/><rect x="504" y="106" width="11" height="11" rx="2.5" fill="#C9D1D9" opacity="0.10"/><rect x="518" y="22" width="11" height="11" rx="2.5" fill="#C9D1D9" opacity="0.10"/><rect x="518" y="36" width="11" height="11" rx="2.5" fill="#C9D1D9" opacity="0.10"/><rect x="518" y="50" width="11" height="11" rx="2.5" fill="#C9D1D9" opacity="0.10"/><rect x="518" y="64" width="11" height="11" rx="2.5" fill="#C9D1D9" opacity="0.10"/><rect x="518" y="78" width="11" height="11" rx="2.5" fill="#C9D1D9" opacity="0.10"/><rect x="518" y="92" width="11" height="11" rx="2.5" fill="#C9D1D9" opacity="0.10"/><rect x="518" y="106" width="11" height="11" rx="2.5" fill="#C9D1D9" opacity="0.10"/><rect x="532" y="22" width="11" height="11" rx="2.5" fill="#C9D1D9" opacity="0.10"/><rect x="532" y="36" width="11" height="11" rx="2.5" fill="#C9D1D9" opacity="0.10"/><rect x="532" y="50" width="11" height="11" rx="2.5" fill="#C9D1D9" opacity="0.10"/><rect x="532" y="64" width="11" height="11" rx="2.5" fill="#C9D1D9" opacity="0.10"/><rect x="532" y="78" width="11" height="11" rx="2.5" fill="#C9D1D9" opacity="0.10"/><rect x="532" y="92" width="11" height="11" rx="2.5" fill="#C9D1D9" opacity="0.10"/><rect x="532" y="106" width="11" height="11" rx="2.5" fill="#C9D1D9" opacity="0.10"/><rect x="546" y="22" width="11" height="11" rx="2.5" fill="#C9D1D9" opacity="0.10"/><rect x="546" y="36" width="11" height="11" rx="2.5" fill="#C9D1D9" opacity="0.10"/><rect x="546" y="50" width="11" height="11" rx="2.5" fill="#C9D1D9" opacity="0.10"/><rect x="546" y="64" width="11" height="11" rx="2.5" fill="#C9D1D9" opacity="0.10"/><rect x="546" y="78" width="11" height="11" rx="2.5" fill="#C9D1D9" opacity="0.10"/><rect x="546" y="92" width="11" height="11" rx="2.5" fill="#C9D1D9" opacity="0.10"/><rect x="546" y="106" width="11" height="11" rx="2.5" fill="#C9D1D9" opacity="0.10"/><rect x="560" y="22" width="11" height="11" rx="2.5" fill="#C9D1D9" opacity="0.10"/><rect x="560" y="36" width="11" height="11" rx="2.5" fill="#C9D1D9" opacity="0.10"/><rect x="560" y="50" width="11" height="11" rx="2.5" fill="#C9D1D9" opacity="0.10"/><rect x="560" y="64" width="11" height="11" rx="2.5" fill="#C9D1D9" opacity="0.10"/><rect x="560" y="78" width="11" height="11" rx="2.5" fill="#C9D1D9" opacity="0.10"/><rect x="560" y="92" width="11" height="11" rx="2.5" fill="#C9D1D9" opacity="0.10"/><rect x="560" y="106" width="11" height="11" rx="2.5" fill="#C9D1D9" opacity="0.10"/><rect x="574" y="22" width="11" height="11" rx="2.5" fill="#C9D1D9" opacity="0.10"/><rect x="574" y="36" width="11" height="11" rx="2.5" fill="#C9D1D9" opacity="0.10"/><rect x="574" y="50" width="11" height="11" rx="2.5" fill="#C9D1D9" opacity="0.10"/><rect x="574" y="64" width="11" height="11" rx="2.5" fill="#C9D1D9" opacity="0.10"/><rect x="574" y="78" width="11" height="11" rx="2.5" fill="#C9D1D9" opacity="0.10"/><rect x="574" y="92" width="11" height="11" rx="2.5" fill="#C9D1D9" opacity="0.30"/><rect x="574" y="106" width="11" height="11" rx="2.5" fill="#C9D1D9" opacity="0.30"/><rect x="588" y="22" width="11" height="11" rx="2.5" fill="#C9D1D9" opacity="0.10"/><rect x="588" y="36" width="11" height="11" rx="2.5" fill="#C9D1D9" opacity="0.10"/><rect x="588" y="50" width="11" height="11" rx="2.5" fill="#C9D1D9" opacity="0.10"/><rect x="588" y="64" width="11" height="11" rx="2.5" fill="#C9D1D9" opacity="0.10"/><rect x="588" y="78" width="11" height="11" rx="2.5" fill="#C9D1D9" opacity="0.10"/><rect x="588" y="92" width="11" height="11" rx="2.5" fill="#C9D1D9" opacity="0.10"/><rect x="588" y="106" width="11" height="11" rx="2.5" fill="#C9D1D9" opacity="0.10"/><rect x="602" y="22" width="11" height="11" rx="2.5" fill="#C9D1D9" opacity="0.10"/><rect x="602" y="36" width="11" height="11" rx="2.5" fill="#C9D1D9" opacity="0.10"/><rect x="602" y="50" width="11" height="11" rx="2.5" fill="#C9D1D9" opacity="0.10"/><rect x="602" y="64" width="11" height="11" rx="2.5" fill="#C9D1D9" opacity="0.10"/><rect x="602" y="78" width="11" height="11" rx="2.5" fill="#C9D1D9" opacity="0.10"/><rect x="602" y="92" width="11" height="11" rx="2.5" fill="#C9D1D9" opacity="0.10"/><rect x="602" y="106" width="11" height="11" rx="2.5" fill="#C9D1D9" opacity="0.10"/><rect x="616" y="22" width="11" height="11" rx="2.5" fill="#C9D1D9" opacity="0.10"/><rect x="616" y="36" width="11" height="11" rx="2.5" fill="#C9D1D9" opacity="0.10"/><rect x="616" y="50" width="11" height="11" rx="2.5" fill="#C9D1D9" opacity="0.10"/><rect x="616" y="64" width="11" height="11" rx="2.5" fill="#C9D1D9" opacity="0.10"/><rect x="616" y="78" width="11" height="11" rx="2.5" fill="#C9D1D9" opacity="0.10"/><rect x="616" y="92" width="11" height="11" rx="2.5" fill="#C9D1D9" opacity="0.10"/><rect x="616" y="106" width="11" height="11" rx="2.5" fill="#C9D1D9" opacity="0.10"/><rect x="630" y="22" width="11" height="11" rx="2.5" fill="#C9D1D9" opacity="0.10"/><rect x="630" y="36" width="11" height="11" rx="2.5" fill="#C9D1D9" opacity="0.10"/><rect x="630" y="50" width="11" height="11" rx="2.5" fill="#C9D1D9" opacity="0.10"/><rect x="630" y="64" width="11" height="11" rx="2.5" fill="#C9D1D9" opacity="0.10"/><rect x="630" y="78" width="11" height="11" rx="2.5" fill="#C9D1D9" opacity="0.10"/><rect x="630" y="92" width="11" height="11" rx="2.5" fill="#C9D1D9" opacity="0.10"/><rect x="630" y="106" width="11" height="11" rx="2.5" fill="#C9D1D9" opacity="0.10"/><rect x="644" y="22" width="11" height="11" rx="2.5" fill="#C9D1D9" opacity="0.10"/><rect x="644" y="36" width="11" height="11" rx="2.5" fill="#C9D1D9" opacity="0.10"/><rect x="644" y="50" width="11" height="11" rx="2.5" fill="#C9D1D9" opacity="0.10"/><rect x="644" y="64" width="11" height="11" rx="2.5" fill="#C9D1D9" opacity="0.10"/><rect x="644" y="78" width="11" height="11" rx="2.5" fill="#C9D1D9" opacity="0.10"/><rect x="644" y="92" width="11" height="11" rx="2.5" fill="#C9D1D9" opacity="0.10"/><rect x="644" y="106" width="11" height="11" rx="2.5" fill="#C9D1D9" opacity="0.10"/><rect x="658" y="22" width="11" height="11" rx="2.5" fill="#C9D1D9" opacity="0.10"/><rect x="658" y="36" width="11" height="11" rx="2.5" fill="#C9D1D9" opacity="0.10"/><rect x="658" y="50" width="11" height="11" rx="2.5" fill="#C9D1D9" opacity="0.10"/><rect x="658" y="64" width="11" height="11" rx="2.5" fill="#C9D1D9" opacity="0.10"/><rect x="658" y="78" width="11" height="11" rx="2.5" fill="#C9D1D9" opacity="0.30"/><rect x="658" y="92" width="11" height="11" rx="2.5" fill="#C9D1D9" opacity="0.30"/><rect x="658" y="106" width="11" height="11" rx="2.5" fill="#C9D1D9" opacity="0.10"/><rect x="672" y="22" width="11" height="11" rx="2.5" fill="#C9D1D9" opacity="0.10"/><rect x="672" y="36" width="11" height="11" rx="2.5" fill="#C9D1D9" opacity="0.10"/><rect x="672" y="50" width="11" height="11" rx="2.5" fill="#C9D1D9" opacity="0.10"/><rect x="672" y="64" width="11" height="11" rx="2.5" fill="#C9D1D9" opacity="0.10"/><rect x="672" y="78" width="11" height="11" rx="2.5" fill="#C9D1D9" opacity="0.30"/><rect x="672" y="92" width="11" height="11" rx="2.5" fill="#C9D1D9" opacity="0.10"/><rect x="672" y="106" width="11" height="11" rx="2.5" fill="#C9D1D9" opacity="0.10"/><rect x="686" y="22" width="11" height="11" rx="2.5" fill="#C9D1D9" opacity="0.10"/><rect x="686" y="36" width="11" height="11" rx="2.5" fill="#C9D1D9" opacity="0.10"/><rect x="686" y="50" width="11" height="11" rx="2.5" fill="#C9D1D9" opacity="0.10"/><rect x="686" y="64" width="11" height="11" rx="2.5" fill="#C9D1D9" opacity="0.10"/><rect x="686" y="78" width="11" height="11" rx="2.5" fill="#C9D1D9" opacity="0.10"/><rect x="686" y="92" width="11" height="11" rx="2.5" fill="#C9D1D9" opacity="0.10"/><rect x="686" y="106" width="11" height="11" rx="2.5" fill="#C9D1D9" opacity="0.10"/><rect x="700" y="22" width="11" height="11" rx="2.5" fill="#C9D1D9" opacity="0.10"/><rect x="700" y="36" width="11" height="11" rx="2.5" fill="#C9D1D9" opacity="0.10"/><rect x="700" y="50" width="11" height="11" rx="2.5" fill="#C9D1D9" opacity="0.10"/><rect x="700" y="64" width="11" height="11" rx="2.5" fill="#C9D1D9" opacity="0.10"/><rect x="700" y="78" width="11" height="11" rx="2.5" fill="#C9D1D9" opacity="0.10"/><rect x="700" y="92" width="11" height="11" rx="2.5" fill="#C9D1D9" opacity="0.10"/><rect x="700" y="106" width="11" height="11" rx="2.5" fill="#C9D1D9" opacity="0.10"/><rect x="714" y="22" width="11" height="11" rx="2.5" fill="#C9D1D9" opacity="0.10"/><rect x="714" y="36" width="11" height="11" rx="2.5" fill="#C9D1D9" opacity="0.10"/><rect x="714" y="50" width="11" height="11" rx="2.5" fill="#C9D1D9" opacity="0.30"/><rect x="714" y="64" width="11" height="11" rx="2.5" fill="#C9D1D9" opacity="0.30"/><rect x="714" y="78" width="11" height="11" rx="2.5" fill="#C9D1D9" opacity="1.00"/><rect x="714" y="92" width="11" height="11" rx="2.5" fill="#C9D1D9" opacity="0.72"/><rect x="714" y="106" width="11" height="11" rx="2.5" fill="#C9D1D9" opacity="0.30"/><rect x="728" y="22" width="11" height="11" rx="2.5" fill="#C9D1D9" opacity="0.30"/><rect x="728" y="36" width="11" height="11" rx="2.5" fill="#C9D1D9" opacity="0.10"/><text x="592" y="138" font-size="9" fill="#8B949E">less</text><rect x="624" y="129" width="11" height="11" rx="2.5" fill="#C9D1D9" opacity="0.10"/><rect x="638" y="129" width="11" height="11" rx="2.5" fill="#C9D1D9" opacity="0.30"/><rect x="652" y="129" width="11" height="11" rx="2.5" fill="#C9D1D9" opacity="0.50"/><rect x="666" y="129" width="11" height="11" rx="2.5" fill="#C9D1D9" opacity="0.72"/><rect x="680" y="129" width="11" height="11" rx="2.5" fill="#C9D1D9" opacity="1.00"/><text x="698" y="138" font-size="9" fill="#8B949E">more</text></g></svg>